Coordinates
version=1
nRows=10
nColumns=33
inDegrees=yes

Units are S.I. units (second, meters, Newtons, ...)
Angles are in degrees.

endheader
time	ground_thorax_rot_x	ground_thorax_rot_y	ground_thorax_rot_z	ground_thorax_tx	ground_thorax_ty	ground_thorax_tz	clav_prot_r	clav_elev_r	scapula_abduction_r	scapula_elevation_r	scapula_upward_rot_r	scapula_winging_r	shoulder_elv_r	plane_of_elev_r	axial_rot_r	elbow_flexion_r	pro_sup_r	wrist_flex_r	wrist_dev_r	clav_prot_l	clav_elev_l	scapula_abduction_l	scapula_elevation_l	scapula_upward_rot_l	scapula_winging_l	shoulder_elv_l	plane_of_elev_l	axial_rot_l	elbow_flexion_l	pro_sup_l	wrist_flex_l	wrist_dev_l
      3.16000000	    -39.30841900	     -8.82886416	     15.21404147	   -146.97950603	    799.97786912	      6.42533123	     -4.20917013	    -45.00000000	     45.00000000	    -45.00000000	     18.48014701	  -3711.68785910	  -1013.59892605	     22.19830947	   -179.99999979	   1806.75397001	   -129.15355937	     15.53013854	     12.76815083	     18.75747573	     40.11144692	    -42.54970139	    -45.00000000	    -39.80405059	    441.12007382	   -816.22145951	    134.00314973	    176.23599378	    369.60233224	     11.39220579	      8.91775632	    -19.23072591
      3.17000000	    -39.31967065	     -8.75419289	     15.12765006	   -149.39540891	    801.73367481	      6.29069972	     -4.10896960	    -45.00000000	     45.00000000	    -45.00000000	     18.50461556	  -3711.67131533	  -1013.35278872	     22.25139508	   -179.99999979	   1806.70593839	   -129.54169567	     15.63526136	     12.85026429	     18.60089294	     40.12701438	    -42.45627652	    -45.00000000	    -39.68654681	    441.35707380	   -816.12078588	    134.07264059	    175.99592791	    369.64061689	     10.73890426	      8.93098051	    -19.25918038
      3.18000000	    -39.32088978	     -8.67228633	     15.00068421	   -151.82484692	    803.49388914	      6.14666382	     -4.02412953	    -45.00000000	     45.00000000	    -45.00000000	     18.55949068	  -3711.60493660	  -1013.07916328	     22.35453763	   -179.99999979	   1806.75610752	   -129.87303267	     15.69656231	     12.92676908	     18.47811162	     40.18827445	    -42.26255192	    -45.00000000	    -39.50072330	    441.62499188	   -816.00116159	    134.08074771	    175.51603483	    369.75615781	     10.16686759	      8.91372600	    -19.30394593
      3.19000000	    -39.27536630	     -8.67090601	     14.85633572	   -154.26271865	    805.25187222	      5.99237196	     -3.90943262	    -45.00000000	     45.00000000	    -45.00000000	     18.54893879	  -3711.53878000	  -1012.91032397	     22.46964218	   -179.99999979	   1806.70252746	   -130.18385159	     15.82695053	     13.01691978	     18.32520509	     40.19278183	    -42.13864497	    -45.00000000	    -39.44199008	    441.87166775	   -816.02873478	    134.19299372	    175.14251272	    369.82522749	      9.58346114	      8.89239830	    -19.34331077
      3.20000000	    -39.28360199	     -8.61957758	     14.84564010	   -156.70134263	    807.00024842	      5.83143144	     -3.71795152	    -45.00000000	     45.00000000	    -45.00000000	     18.34361370	  -3711.52947674	  -1012.65967974	     22.54379812	   -179.99999979	   1806.66388144	   -130.48278559	     15.96129685	     13.10314497	     18.19208940	     40.02752296	    -42.09355572	    -45.00000000	    -39.59669136	    442.06650267	   -815.79830643	    134.20951625	    175.09504553	    369.87636932	      8.91762958	      8.90960493	    -19.37082407
      3.21000000	    -39.35036828	     -8.33888156	     14.45072362	   -159.13197326	    808.73143328	      5.66613212	     -3.72895110	    -45.00000000	     45.00000000	    -45.00000000	     18.58464398	  -3711.43685519	  -1012.47855517	     22.62395661	   -179.99999979	   1806.71409969	   -130.70487823	     16.17236961	     13.26445526	     17.71282933	     40.80933147	    -41.89732583	    -45.00000000	    -38.37616744	    442.17380485	   -816.10055572	    134.76443625	    174.30976814	    370.05249544	      8.63488927	      9.21311121	    -19.50793323
      3.22000000	    -39.47519330	     -8.00399610	     14.11479955	   -161.56053883	    810.44727652	      5.49701124	     -3.75223438	    -45.00000000	     45.00000000	    -45.00000000	     18.94457862	  -3711.48688404	  -1012.24823059	     22.62747956	   -179.99999979	   1806.58974044	   -130.92606298	     16.36856348	     13.34402565	     17.47549484	     40.78221373	    -42.02419862	    -45.00000000	    -37.84911596	    442.40814214	   -816.25341110	    134.99815520	    173.87551326	    369.99372793	      8.26243133	      9.09220873	    -19.54522512
      3.23000000	    -39.41414286	     -8.05008762	     14.15224083	   -163.96474840	    812.13048115	      5.32598227	     -3.67842189	    -45.00000000	     45.00000000	    -45.00000000	     18.74726860	  -3711.51914383	  -1012.02291878	     22.66762847	   -179.99999979	   1806.50563106	   -131.15888931	     16.50198190	     13.38774828	     17.36492597	     40.79345020	    -41.95471340	    -45.00000000	    -37.82200955	    442.65675994	   -816.29920248	    135.20278186	    173.32140206	    370.13081444	      7.85646049	      9.02833643	    -19.60665770
      3.24000000	    -39.19065237	     -8.56236984	     14.69860857	   -166.36282035	    813.79201044	      5.15229664	     -3.16943514	    -45.00000000	     45.00000000	    -45.00000000	     17.65016350	  -3711.44208111	  -1011.72237945	     22.80994595	   -179.99999979	   1806.48707589	   -131.55596559	     16.50141567	     13.37883458	     17.76725301	     39.59426100	    -41.84324110	    -45.00000000	    -40.20779354	    442.87737515	   -815.37037635	    134.44615831	    174.27165238	    370.08091240	      6.62796095	      8.65109507	    -19.50304629
      3.25000000	    -39.20136514	     -8.50645775	     14.53733389	   -168.74248026	    815.42280197	      4.97683011	     -3.09062084	    -45.00000000	     45.00000000	    -45.00000000	     17.76524561	  -3711.47926629	  -1011.54592340	     22.90353682	   -179.99999979	   1806.56753649	   -131.84765487	     16.60802000	     13.45618443	     17.51531802	     39.92341139	    -41.51424086	    -45.00000000	    -39.60092439	    443.12112611	   -815.41309260	    134.64078642	    173.15750361	    370.19640129	      6.20694316	      8.76654014	    -19.57319678
